<svg width="28" height="25" viewBox="0 0 28 25" fill="none" xmlns="http://www.w3.org/2000/svg">
<rect width="28" height="25" rx="2" fill="#00A6CA"/>
<path fill-rule="evenodd" clip-rule="evenodd" d="M14.5048 3.7207H7H5V5.7207V19.9992V21.9992H7H20.5474H22.5474V19.9992V13.2255H20.5474V19.9992H7V5.7207H14.5048V3.7207Z" fill="white"/>
<path d="M13.0409 11.8525L13 14.6226C12.9979 14.8299 13.1527 15 13.3441 15H13.3527L15.8902 14.9324C15.9332 14.9301 15.9762 14.9115 16.0063 14.8789L24.95 5.21039C25.0167 5.13817 25.0167 5.01935 24.95 4.94713L22.277 2.05358C22.2426 2.01631 22.1996 2 22.1544 2C22.1093 2 22.0663 2.01864 22.0319 2.05358L13.0903 11.722C13.0593 11.7572 13.0416 11.8038 13.0409 11.8525ZM14.4064 12.4023L22.1544 4.02688L23.1264 5.0776L15.3741 13.4577L14.3914 13.4833L14.4064 12.4023Z" fill="white"/>
</svg>
