<svg width="36" height="30" viewBox="0 0 36 30" fill="none" xmlns="http://www.w3.org/2000/svg">
<path fill-rule="evenodd" clip-rule="evenodd" d="M20.9587 7.97698H4.70741C3.55159 7.97698 3.43728 8.08708 3.43728 9.21639V25.4545C3.43728 26.5303 3.57382 26.6624 4.66613 26.6624H31.2162C32.3466 26.6624 32.4864 26.5366 32.4864 25.4041C32.4864 23.9173 32.4881 22.4304 32.4899 20.9435C32.4934 17.9698 32.4969 14.9961 32.4864 12.0223C32.4864 11.3429 32.6801 11.1541 33.3405 11.2076C34.0481 11.2469 34.7573 11.2469 35.4648 11.2076C35.8363 11.2076 35.9379 11.3334 35.9379 11.6858C35.9379 12.0664 35.961 24.4087 36 24.8667C36 29.0383 34.0672 29.9654 30.5503 29.9654C27.0333 29.9654 14.8716 30 14.8716 30H4.23429C1.86232 29.9937 0.0523928 28.3391 0.0333408 25.9767C-0.0111136 20.1886 -0.0111136 14.4005 0.0333408 8.61241C0.0555681 6.31291 1.88138 4.6048 4.20571 4.6048H31.7402C32.5689 4.60034 33.3797 4.8431 34.0672 5.30147C34.7548 5.75984 35.2871 6.41261 35.595 7.17483C35.8903 7.91721 35.8554 7.97069 35.0552 7.97069H20.9587V7.97698Z" fill="#00A6CA"/>
<path fill-rule="evenodd" clip-rule="evenodd" d="M13.8855 3.06983V5.62801H10.7998V2.55819C10.7998 1.14534 11.9511 0 13.3712 0H23.6569C25.0771 0 26.2284 1.14534 26.2284 2.55819V5.62801H23.1427V3.06983H13.8855Z" fill="#00A6CA"/>
<path fill-rule="evenodd" clip-rule="evenodd" d="M33.9431 16.3723H3.08594V13.3025H33.9431V16.3723Z" fill="#00A6CA"/>
<path fill-rule="evenodd" clip-rule="evenodd" d="M14.3999 15.8608C14.3999 14.1653 15.7814 13.8142 17.4856 13.8142H19.5428C21.247 13.8142 22.6285 14.1653 22.6285 15.8608C22.6285 17.5562 21.247 18.9306 19.5428 18.9306H17.4856C15.7814 18.9306 14.3999 17.5562 14.3999 15.8608Z" fill="#00A6CA"/>
</svg>
