<svg width="99" height="38" viewBox="0 0 99 38" fill="none" xmlns="http://www.w3.org/2000/svg">
<path d="M0.140137 37.9045V29.4424C1.16437 29.4424 2.27283 29.4303 3.29679 29.4424C4.94073 29.4424 6.12878 30.6259 6.12878 32.2555C6.12878 33.8856 4.94073 35.0421 3.29679 35.0421H0.722619V37.9042H0.140137V37.9045ZM3.29679 34.4753C4.55412 34.4753 5.54494 33.5826 5.54494 32.2423C5.54494 30.9036 4.59134 29.9971 3.29679 29.9971H0.722619V34.475H3.29679V34.4753Z" fill="#3EA3CE"/>
<path d="M8.88547 37.9991C7.90633 37.9991 6.89404 37.4695 6.89404 36.3591C6.89404 35.0925 7.96528 34.4745 9.09547 34.4745C9.79288 34.4745 10.506 34.6209 11.1583 34.9095V33.8958C11.1583 32.7624 10.155 32.5058 9.2593 32.5058C8.60726 32.5058 7.93105 32.6633 7.45371 32.9553L7.32493 32.4712C7.84791 32.1682 8.59531 31.9883 9.33021 31.9883C10.5416 31.9883 11.6832 32.4591 11.6832 33.9068V36.5639C11.6832 37.2645 11.646 37.6626 12.3915 37.5655L12.4149 37.9637C11.4594 38.1205 11.2045 37.7705 11.238 36.8547C10.7962 37.6995 9.81706 37.9991 8.88547 37.9991ZM11.1581 35.4057C10.5158 35.0664 9.82874 34.9337 9.16475 34.9464C8.32607 34.9464 7.44121 35.3589 7.44121 36.311C7.44121 37.2036 8.19648 37.5055 8.97729 37.5055C9.8877 37.5055 10.9127 37.0842 11.1578 36.0809V35.4057H11.1581Z" fill="#3EA3CE"/>
<path d="M16.0969 32.0032C16.6444 32.0131 17.1347 32.1699 17.5086 32.4487L17.3083 32.9569C16.9484 32.6776 16.4835 32.5565 16.0263 32.5565C15.1895 32.5565 14.3842 33.1498 14.3842 34.1405V37.9051H13.8259V33.4266C13.8259 32.8595 13.8132 32.4971 13.103 32.5951L13.0815 32.0742C13.9762 31.9179 14.3392 32.2693 14.3392 32.9448C14.7108 32.2561 15.4465 31.9657 16.0969 32.0032Z" fill="#3EA3CE"/>
<path d="M19.7771 32.0868H21.9549V32.5818H19.7771V35.7205C19.7771 36.926 20.1401 37.4244 20.8698 37.4353C21.223 37.4353 21.6517 37.339 22.1511 37.1571L22.2355 37.6522C21.7107 37.8442 21.232 37.9309 20.8367 37.9309C19.7872 37.9309 19.2193 37.2661 19.2193 35.7326V32.5818L17.937 32.545V32.0868H19.2193L19.2653 30.3125H19.7774V32.0868H19.7771Z" fill="#3EA3CE"/>
<path d="M28.9766 37.9991C27.4976 37.9991 26.0308 36.9865 26.0308 34.9824C26.0308 32.9651 27.5101 31.9883 28.9885 31.9883C30.4665 31.9883 31.9243 32.9789 31.9243 34.9824C31.9243 36.9868 30.445 37.9991 28.9766 37.9991ZM28.9766 37.4827C30.1647 37.4827 31.3663 36.6379 31.3663 34.9824C31.3663 33.3292 30.1763 32.5323 28.9885 32.5202C27.7888 32.5058 26.5902 33.3171 26.5902 34.9824C26.5902 36.6379 27.779 37.4827 28.9766 37.4827Z" fill="#3EA3CE"/>
<path d="M33.9606 32.5942H32.644V32.086H33.9606V31.0356C33.9606 28.9485 35.5456 28.6576 37.0463 29.3202L36.9306 29.791C35.7771 29.2734 34.5205 29.3466 34.5205 31.0489V32.0862H36.6874V32.5945H34.5205V37.9045H33.9603V32.5942H33.9606Z" fill="#3EA3CE"/>
<path d="M39.4487 30.0104V29.4531H45.3871V30.0104H42.7084V37.9048H42.1267V30.0104H39.4487Z" fill="#3EA3CE"/>
<path d="M48.0267 32.0027C48.5741 32.0126 49.0642 32.1694 49.4362 32.4482L49.2386 32.9565C48.8778 32.6771 48.4119 32.556 47.9577 32.556C47.119 32.556 46.3156 33.1493 46.3156 34.14V37.9046H45.7562V33.4262C45.7562 32.859 45.7445 32.4966 45.0344 32.5946L45.0107 32.0737C45.9073 31.9174 46.2684 32.2688 46.2684 32.9443C46.6406 32.2556 47.3744 31.9653 48.0267 32.0027Z" fill="#3EA3CE"/>
<path d="M51.9721 37.9991C50.993 37.9991 49.981 37.4695 49.981 36.3591C49.981 35.0925 51.0508 34.4745 52.1813 34.4745C52.8795 34.4745 53.5889 34.6209 54.2423 34.9095V33.8958C54.2423 32.7624 53.2398 32.5058 52.344 32.5058C51.692 32.5058 51.015 32.6633 50.5384 32.9553L50.4108 32.4712C50.9346 32.1682 51.68 31.9883 52.4138 31.9883C53.6264 31.9883 54.768 32.4591 54.768 33.9068V36.5639C54.768 37.2645 54.7326 37.6626 55.477 37.5655L55.4996 37.9637C54.5463 38.1205 54.2893 37.7705 54.3227 36.8547C53.8831 37.6995 52.904 37.9991 51.9721 37.9991ZM54.2423 35.4057C53.6008 35.0664 52.9159 34.9337 52.2508 34.9464C51.4111 34.9464 50.5262 35.3589 50.5262 36.311C50.5262 37.2036 51.2837 37.5055 52.0645 37.5055C52.9719 37.5055 53.9967 37.0842 54.2423 36.0809V35.4057Z" fill="#3EA3CE"/>
<path d="M61.1761 37.9038V34.3667C61.1761 33.2074 60.4306 32.5324 59.3477 32.5324C58.2404 32.5324 57.437 33.2561 57.437 34.4639V37.9035H56.8787V33.5949C56.8787 32.6631 56.7836 32.4713 56.1655 32.5671L56.1558 32.0616C57.0053 31.9284 57.4017 32.1204 57.4017 33.0511C57.904 32.3026 58.5906 31.9754 59.4754 31.9887C60.8939 31.9887 61.7355 32.9655 61.7355 34.3667V37.9038H61.1761Z" fill="#3EA3CE"/>
<path d="M63.6781 36.2856C63.7743 37.1315 64.6942 37.5182 65.6027 37.5182C66.5229 37.5182 67.4673 37.1684 67.4673 36.3346C67.4673 35.259 66.3599 35.259 65.6144 35.1632C64.4943 35.0312 63.2975 34.8262 63.2975 33.6294C63.2975 32.4233 64.4147 31.9883 65.5693 31.9883C66.7326 31.9883 67.8384 32.4844 67.8384 33.5204H67.3252C67.3252 32.7967 66.4523 32.4709 65.5772 32.4709C64.7276 32.4709 63.7496 32.7964 63.8075 33.6176C63.8075 34.5125 65.0316 34.5829 65.6818 34.68C66.859 34.8478 68.037 34.9577 68.0008 36.3344C68.0008 37.4954 66.859 37.9986 65.5897 37.9986C64.4016 37.9986 63.26 37.5179 63.1323 36.2854H63.6781V36.2856Z" fill="#3EA3CE"/>
<path d="M69.4985 35.0084V29.4529H70.0829V34.9957C70.0829 36.5526 71.0955 37.4349 72.5639 37.4349C74.0185 37.4349 75.0199 36.5526 75.0199 34.9957V29.4529H75.591V35.0084C75.591 36.8911 74.3453 38.0003 72.5639 38.0003C70.7708 38.0003 69.4985 36.8911 69.4985 35.0084Z" fill="#3EA3CE"/>
<path d="M82.0038 37.9038V34.3667C82.0038 33.2074 81.2575 32.5324 80.1746 32.5324C79.0681 32.5324 78.2658 33.2561 78.2658 34.4639V37.9035H77.7048V33.5949C77.7048 32.6631 77.6135 32.4713 76.9946 32.5671L76.9829 32.0616C77.8344 31.9284 78.2297 32.1204 78.2297 33.0511C78.7301 32.3026 79.4174 31.9754 80.3023 31.9887C81.7246 31.9887 82.5624 32.9655 82.5624 34.3667V37.9038H82.0038Z" fill="#3EA3CE"/>
<path d="M84.704 29.6333C84.8912 29.6465 85.0778 29.7805 85.0778 30.0447C85.0778 30.3113 84.9031 30.4423 84.7149 30.4566C84.5184 30.4671 84.3076 30.3223 84.3076 30.0447C84.3076 29.7673 84.5057 29.6237 84.704 29.6333ZM84.9599 37.9039H84.4144V32.0856H84.9599V37.9039Z" fill="#3EA3CE"/>
<path d="M89.4561 37.9991C87.9728 37.9991 86.5073 36.9865 86.5073 34.9824C86.5073 32.9651 87.9855 31.9883 89.4648 31.9883C90.9449 31.9883 92.4009 32.9789 92.4009 34.9824C92.4009 36.9868 90.9197 37.9991 89.4561 37.9991ZM89.4561 37.4827C90.6398 37.4827 91.8407 36.6379 91.8407 34.9824C91.8407 33.3292 90.6526 32.5323 89.4648 32.5202C88.2662 32.5058 87.0664 33.3171 87.0664 34.9824C87.0664 36.6379 88.2534 37.4827 89.4561 37.4827Z" fill="#3EA3CE"/>
<path d="M98.3746 37.9038V34.3667C98.3746 33.2074 97.6299 32.5324 96.547 32.5324C95.4385 32.5324 94.636 33.2561 94.636 34.4639V37.9035H94.0768V33.5949C94.0768 32.6631 93.9826 32.4713 93.3648 32.5671L93.355 32.0616C94.2045 31.9284 94.6006 32.1204 94.6006 33.0511C95.1011 32.3026 95.7876 31.9754 96.6744 31.9887C98.095 31.9887 98.9326 32.9655 98.9326 34.3667V37.9038H98.3746Z" fill="#3EA3CE"/>
<path d="M13.9334 0C19.295 0 24.852 3.08202 26.3 9.49188H21.9181C20.5466 5.96523 17.4959 4.3396 13.8951 4.29934C8.29875 4.29934 4.577 8.51729 4.577 14.5639C4.577 20.2 8.29875 24.7003 13.8951 24.7003C17.653 24.7003 20.8213 22.7957 22.0338 19.0223H26.4579C25.0875 25.961 19.452 29.0028 13.8951 29.0028C6.45866 29.0028 0 23.6894 0 14.5639C0 5.39416 6.45866 0 13.9334 0Z" fill="#3EA3CE"/>
<path d="M40.7776 24.9061V28.7174H27.5508V24.9061H31.8952V4.09673H27.9021V0.320312H40.4263V4.09673H36.4342V24.9061H40.7776Z" fill="#3EA3CE"/>
<path d="M60.2318 13.791C63.0913 14.8053 64.6548 17.158 64.6548 20.3617C64.6548 25.434 61.2892 28.7185 55.9659 28.7185H43.7158V0.324219H54.8308C59.8012 0.324219 63.4388 2.96104 63.4388 8.31606C63.4388 10.7079 62.3852 12.6951 60.2318 13.791ZM48.2567 4.4194V12.249H54.5181C57.1409 12.249 58.94 11.1948 58.9813 8.43489C58.9813 5.63644 57.1792 4.4194 54.5181 4.4194H48.2567ZM48.2567 16.1001V24.5797H55.695C58.2366 24.5797 60.0349 23.081 60.1544 20.3617C60.1544 18.9425 59.6847 17.8051 58.7458 16.9975C57.6865 16.1846 56.4386 16.1001 55.1829 16.1001H48.2567Z" fill="#3EA3CE"/>
<path d="M79.7077 24.9061V28.7174H66.481V24.9061H70.8246V4.09673H66.8339V0.320312H79.3567V4.09673H75.3644V24.9061H79.7077Z" fill="#3EA3CE"/>
<path d="M87.2193 24.4579H98.9996V28.7184H82.6406V0.321289H87.2193V24.4579Z" fill="#3EA3CE"/>
</svg>
