<svg width="18" height="18" viewBox="0 0 18 18" fill="none" xmlns="http://www.w3.org/2000/svg">
<path d="M8.76469 8.22411e-06C7.12713 -0.0022362 5.52179 0.454953 4.13112 1.31961C2.74045 2.18427 1.62024 3.42172 0.897806 4.8913C0.175372 6.36089 -0.120306 8.00367 0.0443783 9.63292C0.209063 11.2622 0.827505 12.8126 1.82941 14.1078C2.83132 15.4031 4.1765 16.3914 5.71207 16.9603C7.24764 17.5291 8.912 17.6558 10.516 17.3259C12.12 16.996 13.5992 16.2228 14.7857 15.0941C15.9721 13.9653 16.8181 12.5264 17.2274 10.9409H14.9507C14.5494 12.0757 13.844 13.0783 12.9114 13.8392C11.9787 14.6 10.8549 15.0899 9.66266 15.2551C8.47044 15.4203 7.25574 15.2545 6.15136 14.776C5.04698 14.2974 4.09544 13.5244 3.40076 12.5414C2.70608 11.5585 2.29502 10.4035 2.2125 9.20276C2.12998 8.00197 2.37918 6.80161 2.93287 5.7329C3.48655 4.6642 4.32341 3.76829 5.35193 3.14313C6.38046 2.51796 7.56107 2.18761 8.76469 2.18818C9.6256 2.18944 10.4776 2.36231 11.2709 2.6967C12.0643 3.03108 12.783 3.52027 13.385 4.13565L9.86425 7.65861H17.5228V8.22411e-06L14.9507 2.57111C14.1401 1.75567 13.1763 1.10867 12.1146 0.6674C11.0529 0.22613 9.91442 -0.000690319 8.76469 8.22411e-06V8.22411e-06Z" fill="#00A6CA"/>
</svg>
