<svg width="60" height="60" viewBox="0 0 60 60" fill="none" xmlns="http://www.w3.org/2000/svg">
<path d="M30.2805 0.971191C13.9952 0.971191 0.790527 14.1506 0.790527 30.4048C0.790527 46.659 13.9952 59.8385 30.2805 59.8385C46.5658 59.8385 59.7704 46.659 59.7704 30.4048C59.7704 14.1506 46.5658 0.971191 30.2805 0.971191ZM30.2805 54.8452C16.7599 54.8452 5.79328 43.8996 5.79328 30.4048C5.79328 16.91 16.7599 5.9644 30.2805 5.9644C43.8011 5.9644 54.7676 16.91 54.7676 30.4048C54.7676 43.8996 43.8011 54.8452 30.2805 54.8452Z" fill="white"/>
<path d="M43.9328 29.5576L24.4418 15.4321C24.2854 15.3177 24.1004 15.2489 23.9072 15.2334C23.714 15.2178 23.5202 15.2561 23.3476 15.344C23.1749 15.4318 23.0301 15.5659 22.9292 15.7311C22.8284 15.8963 22.7754 16.0862 22.7764 16.2796V44.5307C22.7764 45.3913 23.7506 45.8775 24.4418 45.3782L43.9328 31.2527C44.0673 31.1559 44.1769 31.0286 44.2525 30.8812C44.3281 30.7339 44.3675 30.5707 44.3675 30.4051C44.3675 30.2396 44.3281 30.0764 44.2525 29.9291C44.1769 29.7817 44.0673 29.6544 43.9328 29.5576ZM26.9761 38.3614V22.4489V31.2527V38.3614Z" fill="white"/>
</svg>
