<svg width="15" height="16" viewBox="0 0 15 16" fill="none" xmlns="http://www.w3.org/2000/svg">
<path d="M13.5 0H1.5C0.675 0 0 0.675 0 1.5V14.5C0 15.325 0.675 16 1.5 16H13.5C14.325 16 15 15.325 15 14.5V1.5C15 0.675 14.325 0 13.5 0ZM13 14H2V2H13V14ZM4 9H11V10H4V9ZM4 11H11V12H4V11ZM5 4.5C5.00007 4.30295 5.03894 4.10785 5.11441 3.92582C5.18988 3.7438 5.30046 3.57842 5.43984 3.43913C5.57922 3.29984 5.74467 3.18937 5.92675 3.11403C6.10882 3.03868 6.30395 2.99993 6.501 3C6.69805 3.00007 6.89315 3.03894 7.07518 3.11441C7.2572 3.18988 7.42258 3.30046 7.56187 3.43984C7.70116 3.57922 7.81163 3.74467 7.88697 3.92675C7.96232 4.10882 8.00107 4.30395 8.001 4.501C8.00087 4.89896 7.84265 5.28056 7.56116 5.56187C7.27967 5.84317 6.89796 6.00113 6.5 6.001C6.10204 6.00087 5.72044 5.84265 5.43913 5.56116C5.15783 5.27967 4.99987 4.89796 5 4.5ZM7.5 6H5.5C4.675 6 4 6.45 4 7V8H9V7C9 6.45 8.325 6 7.5 6Z" fill="#00A6CA"/>
</svg>
