<svg width="54" height="54" viewBox="0 0 54 54" fill="none" xmlns="http://www.w3.org/2000/svg">
<path d="M47.1441 24.3633C48.7736 24.3633 49.4539 22.2698 48.1303 21.3047L27.991 6.65513C27.7034 6.44441 27.3561 6.33081 26.9996 6.33081C26.6431 6.33081 26.2958 6.44441 26.0082 6.65513L5.86893 21.3047C4.5453 22.2645 5.22557 24.3633 6.86034 24.3633H10.1246V44.086H6.32772C6.09569 44.086 5.90584 44.2758 5.90584 44.5079V47.25C5.90584 47.4821 6.09569 47.6719 6.32772 47.6719H47.6715C47.9035 47.6719 48.0933 47.4821 48.0933 47.25V44.5079C48.0933 44.2758 47.9035 44.086 47.6715 44.086H43.8746V24.3633H47.1441ZM20.0914 44.086H13.9215V24.3633H20.0914V44.086ZM30.0582 44.086H23.8883V24.3633H30.0582V44.086ZM40.0777 44.086H33.8551V24.3633H40.0777V44.086Z" fill="black"/>
<rect x="10.0273" y="24.267" width="3.89673" height="19.7696" fill="black"/>
<rect x="20.0352" y="24.267" width="3.89673" height="19.7696" fill="black"/>
<rect x="30.0435" y="24.267" width="3.89672" height="19.7696" fill="black"/>
<rect x="40.0518" y="24.267" width="3.89672" height="19.7696" fill="black"/>
</svg>
