<svg width="39" height="27" viewBox="0 0 39 27" fill="none" xmlns="http://www.w3.org/2000/svg">
<path fill-rule="evenodd" clip-rule="evenodd" d="M0 1.83081V3.66162H1.88289H3.76578V1.83081V0H1.88289H0V1.83081ZM7.8902 1.83081V3.66162H23.312H38.7337V1.83081V0H23.312H7.8902V1.83081ZM0 13.4259V15.3439H1.88289H3.76578V13.4259V11.5079H1.88289H0V13.4259ZM7.8902 13.4259V15.3439H23.312H38.7337V13.4259V11.5079H23.312H7.8902V13.4259ZM0 24.9339V26.8519H1.88289H3.76578V24.9339V23.0159H1.88289H0V24.9339ZM7.8902 24.9339V26.8519H23.312H38.7337V24.9339V23.0159H23.312H7.8902V24.9339Z" fill="#3EA3CE"/>
</svg>
