<svg width="357" height="201" viewBox="0 0 357 201" fill="none" xmlns="http://www.w3.org/2000/svg">
<rect width="357" height="201" rx="6" fill="#3EA3CE"/>
<path d="M20.8117 139.929C20.8117 144.569 24.2917 147.049 27.9717 147.049C30.8917 147.049 33.8717 145.509 34.4717 141.809H31.5917C31.1117 143.509 29.6917 144.329 27.9517 144.329C25.4517 144.329 23.8317 142.329 23.8317 139.929C23.8317 137.269 25.4917 135.469 27.9717 135.469C29.6517 135.469 30.9117 136.169 31.5317 137.749H34.4317C33.7917 134.289 30.7917 132.769 27.9717 132.769C24.2917 132.709 20.8117 135.269 20.8117 139.929ZM41.0665 144.529V135.229H42.8865V132.909H36.2465V135.229H38.0665V144.529H36.0865V146.909H43.0465V144.529H41.0665ZM55.9361 137.069C55.9361 134.449 54.0961 132.929 51.5361 132.929H45.5961V146.909H52.0961C54.8961 146.909 56.5361 145.229 56.5361 142.769C56.5361 141.329 55.8361 140.189 54.5361 139.649C55.4161 139.109 55.9361 138.089 55.9361 137.069ZM51.3161 135.489C52.3561 135.489 53.0161 136.149 52.9961 137.169C52.9761 138.109 52.3361 138.669 51.3161 138.669H48.5761V135.489H51.3161ZM51.7561 141.109C52.2161 141.109 52.6161 141.149 52.9561 141.389C53.3761 141.689 53.5961 142.209 53.5761 142.769C53.5161 143.709 52.9161 144.309 51.8961 144.309H48.5761V141.109H51.7561ZM63.1759 144.529V135.229H64.9959V132.909H58.3559V135.229H60.1759V144.529H58.1959V146.909H65.1559V144.529H63.1759ZM70.6854 132.909H67.6854V146.909H76.5254V144.229H70.6854V132.909ZM82.8031 132.929V146.909H88.0031C92.5231 146.909 94.9231 143.449 94.8631 139.869C94.8631 136.309 92.4631 132.929 88.0031 132.929H82.8031ZM85.7831 144.209V135.629H87.9631C90.5031 135.629 91.8831 137.649 91.8831 139.889C91.8831 142.129 90.5431 144.209 87.9631 144.209H85.7831ZM101.34 144.529V135.229H103.16V132.909H96.52V135.229H98.34V144.529H96.36V146.909H103.32V144.529H101.34ZM105.069 142.769C105.069 145.829 107.969 147.209 110.769 147.209C113.529 147.149 116.389 146.129 116.389 142.829C116.389 139.549 113.849 138.889 110.889 138.629C109.429 138.469 108.209 138.189 108.209 136.949C108.209 135.869 109.389 135.229 110.589 135.229C111.789 135.229 112.969 135.709 113.129 136.849H115.929C115.929 133.709 113.209 132.609 110.589 132.609C107.809 132.609 105.269 133.909 105.269 137.009C105.269 139.909 107.829 140.769 110.369 140.989C111.709 141.089 113.429 141.229 113.429 142.829C113.429 144.289 111.989 144.589 110.749 144.589C109.389 144.589 107.989 144.049 107.929 142.769H105.069ZM121.838 146.889V142.929H124.818C128.018 142.929 129.798 140.589 129.798 137.989C129.798 135.349 128.078 132.889 124.818 132.889C122.818 132.889 120.838 132.869 118.838 132.889V146.889H121.838ZM121.778 140.369V135.509C122.798 135.509 123.798 135.489 124.818 135.509C126.138 135.509 126.938 136.609 126.938 137.909C126.938 139.249 126.098 140.369 124.818 140.369H121.778ZM137.404 147.089C140.364 147.089 142.944 145.389 142.944 142.249V132.909H139.984V142.189C139.984 143.689 138.784 144.449 137.404 144.449C136.024 144.449 134.804 143.689 134.804 142.189V132.909H131.804V142.249C131.804 145.389 134.444 147.089 137.404 147.089ZM148.544 135.509V146.909H151.444V135.509H155.164V132.909H144.804V135.509H148.544ZM165.719 132.909H157.139V146.909H165.879V144.189H160.159V140.989H165.359V138.369H160.159V135.529H165.719V132.909Z" fill="#FCD833"/>
<path d="M30.5717 164.309C30.5717 161.909 28.6517 160.689 26.2517 160.689C23.9317 160.689 21.6317 162.029 21.7917 164.529C21.8517 165.509 22.3117 166.429 23.1717 166.969C21.7517 167.669 20.9317 168.989 20.9317 170.609C20.8717 172.929 22.6117 175.129 26.1917 175.129C29.1717 175.129 30.9317 173.309 30.9317 170.369V168.209H32.2917V165.949H28.5117V170.389C28.4517 171.829 27.5517 172.649 26.1917 172.649C24.7517 172.649 23.8517 171.689 23.8517 170.509C23.8517 169.289 24.7517 168.389 26.1317 168.329H26.7917V166.049C25.3717 166.049 24.5517 165.649 24.5517 164.529C24.5517 163.569 25.4317 163.129 26.3317 163.129C27.3517 163.129 28.1117 163.589 28.1117 164.309H30.5717ZM50.8418 174.909V160.909H47.8418V166.249H42.4818V160.909H39.5018V174.909H42.4818V168.989H47.8418V174.909H50.8418ZM67.5921 167.909C67.5921 163.209 64.1321 160.689 60.4721 160.689C56.7521 160.689 53.2921 163.189 53.2921 167.909C53.2921 172.629 56.6721 175.149 60.4121 175.149C64.6521 175.149 67.5921 172.169 67.5921 167.909ZM56.3121 167.909C56.3121 164.949 58.2721 163.449 60.4721 163.449C62.6521 163.449 64.6121 164.929 64.6121 167.909C64.6121 170.969 62.6321 172.409 60.4521 172.409C58.2121 172.409 56.3121 170.969 56.3121 167.909ZM77.1962 161.149L74.2762 169.829H74.2162L72.9562 165.189L71.5362 160.909H68.3962V161.349L73.2362 175.029H75.0762L77.7762 167.469H77.8362L80.6162 175.029H82.3962L87.2162 161.349V160.909H84.0762L82.6762 165.169L81.4962 169.829H81.4362L78.4162 161.149H77.1962ZM97.6486 172.529V163.229H99.4686V160.909H92.8286V163.229H94.6486V172.529H92.6686V174.909H99.6286V172.529H97.6486ZM104.638 163.509V174.909H107.538V163.509H111.258V160.909H100.898V163.509H104.638ZM124.364 161.149L121.444 169.829H121.384L120.124 165.189L118.704 160.909H115.564V161.349L120.404 175.029H122.244L124.944 167.469H125.004L127.784 175.029H129.564L134.384 161.349V160.909H131.244L129.844 165.169L128.664 169.829H128.604L125.584 161.149H124.364ZM149.506 167.909C149.506 163.209 146.046 160.689 142.386 160.689C138.666 160.689 135.206 163.189 135.206 167.909C135.206 172.629 138.586 175.149 142.326 175.149C146.566 175.149 149.506 172.169 149.506 167.909ZM138.226 167.909C138.226 164.949 140.186 163.449 142.386 163.449C144.566 163.449 146.526 164.929 146.526 167.909C146.526 170.969 144.546 172.409 142.366 172.409C140.126 172.409 138.226 170.969 138.226 167.909ZM160.403 169.809C162.003 169.029 162.903 167.469 162.903 165.689C162.903 163.209 161.163 160.889 157.963 160.889C155.963 160.869 153.983 160.889 151.983 160.889V174.889H154.983V170.269H157.483L160.363 174.889H163.563V174.469L160.403 169.809ZM154.943 167.809V163.509H157.943C159.223 163.509 160.003 164.449 160.003 165.629C160.023 166.829 159.203 167.809 157.943 167.809H154.943ZM168.771 160.909H165.791V174.909H168.771V169.289C169.391 169.289 170.431 169.289 170.971 169.149L174.491 174.909H177.871V174.469L173.591 167.989C174.451 167.129 174.931 165.869 175.351 164.269C175.651 163.209 176.251 162.869 177.371 162.969V160.929C174.291 160.289 173.071 161.649 172.591 163.389C172.211 164.969 171.931 166.029 171.191 166.429C170.631 166.709 169.631 166.689 168.771 166.689V160.909ZM178.878 170.769C178.878 173.829 181.778 175.209 184.578 175.209C187.338 175.149 190.198 174.129 190.198 170.829C190.198 167.549 187.658 166.889 184.698 166.629C183.238 166.469 182.018 166.189 182.018 164.949C182.018 163.869 183.198 163.229 184.398 163.229C185.598 163.229 186.778 163.709 186.938 164.849H189.738C189.738 161.709 187.018 160.609 184.398 160.609C181.618 160.609 179.078 161.909 179.078 165.009C179.078 167.909 181.638 168.769 184.178 168.989C185.518 169.089 187.238 169.229 187.238 170.829C187.238 172.289 185.798 172.589 184.558 172.589C183.198 172.589 181.798 172.049 181.738 170.769H178.878Z" fill="white"/>
<rect opacity="0.4" width="357" height="201" rx="6" fill="black"/>
<path d="M179.28 58.9712C162.995 58.9712 149.791 72.1506 149.791 88.4048C149.791 104.659 162.995 117.838 179.28 117.838C195.566 117.838 208.77 104.659 208.77 88.4048C208.77 72.1506 195.566 58.9712 179.28 58.9712ZM179.28 112.845C165.76 112.845 154.793 101.9 154.793 88.4048C154.793 74.91 165.76 63.9644 179.28 63.9644C192.801 63.9644 203.768 74.91 203.768 88.4048C203.768 101.9 192.801 112.845 179.28 112.845Z" fill="white"/>
<path d="M192.933 87.5576L173.442 73.4321C173.285 73.3177 173.1 73.2489 172.907 73.2334C172.714 73.2178 172.52 73.2561 172.348 73.344C172.175 73.4318 172.03 73.5659 171.929 73.7311C171.828 73.8963 171.775 74.0862 171.776 74.2796V102.531C171.776 103.391 172.751 103.878 173.442 103.378L192.933 89.2527C193.067 89.1559 193.177 89.0286 193.253 88.8812C193.328 88.7339 193.368 88.5707 193.368 88.4051C193.368 88.2396 193.328 88.0764 193.253 87.9291C193.177 87.7817 193.067 87.6544 192.933 87.5576ZM175.976 96.3614V80.4489V89.2527V96.3614Z" fill="white"/>
</svg>
