<svg width="45" height="45" viewBox="0 0 45 45" fill="none" xmlns="http://www.w3.org/2000/svg">
<path fill-rule="evenodd" clip-rule="evenodd" d="M21.3871 1.79241C18.0823 2.61965 15.0665 5.72575 14.1899 9.20579C13.8435 10.5811 13.8278 13.2482 14.1589 14.5262C14.5243 15.9367 15.4227 17.6521 16.3619 18.7323L17.1929 19.688L16.1847 20.3116C11.7439 23.0578 8.9497 28.1484 8.94087 33.5088L8.93848 34.9836H10.9631H12.9878V33.441C12.9878 30.4012 14.0586 27.7794 16.2058 25.5628C16.9367 24.8082 17.9912 23.9597 18.6358 23.6074C20.0563 22.8312 22.2685 22.2344 23.7386 22.2306C28.1914 22.2195 32.4072 18.9131 33.5305 14.5514C33.8755 13.2116 33.8558 10.3672 33.4926 9.0897C32.9839 7.3003 31.9955 5.59672 30.7472 4.35729C28.2843 1.91211 24.764 0.947468 21.3871 1.79241ZM26.283 6.19807C27.5196 6.76041 28.851 8.13344 29.3968 9.40865C29.9832 10.7794 30.0336 12.0769 29.5628 13.6798C28.5731 17.0483 24.9562 18.8976 21.7688 17.6647C18.578 16.4304 16.9485 12.5621 18.2944 9.41645C18.7898 8.25828 20.0495 6.88658 21.1443 6.31283C22.9052 5.39024 24.4318 5.35618 26.283 6.19807ZM33.2351 22.7082C32.909 23.067 30.9753 24.5292 30.7095 24.6179C30.6876 24.6253 31.1477 25.1508 31.7321 25.7858C32.3167 26.4208 33.0936 27.5297 33.4589 28.2502C34.4959 30.2954 34.7067 31.4415 34.7067 35.0377C34.7067 37.8444 34.6695 38.2241 34.3549 38.6258L34.003 39.0751L21.5579 39.1703L9.1126 39.2654L9.59004 40.2559C10.1411 41.3991 11.0478 42.2897 12.2421 42.861C13.0636 43.2539 13.2876 43.2617 23.8472 43.2617H34.6146L35.6605 42.7308C36.7946 42.1549 37.5984 41.3281 38.2478 40.0689C38.6249 39.3379 38.668 38.9577 38.7245 35.8512C38.8178 30.7352 38.2106 28.0264 36.3052 25.0585C35.4205 23.6803 34.186 22.2334 33.8948 22.2334C33.7693 22.2334 33.4724 22.4471 33.2351 22.7082Z" fill="#3EA3CE"/>
</svg>
