<svg width="43" height="30" viewBox="0 0 43 30" fill="none" xmlns="http://www.w3.org/2000/svg">
<path fill-rule="evenodd" clip-rule="evenodd" d="M24.6315 2.98371H5.53234C4.17398 2.98371 3.03963 4.11377 3.03963 5.44785V24.6303C3.03963 25.9012 4.2001 27.0572 5.48382 27.0572H36.6866C38.0151 27.0572 39.1793 25.9086 39.1793 24.5708C39.1793 22.8143 39.1813 21.0579 39.1834 19.3014C39.1876 15.7885 39.1917 10.2755 39.1793 6.76259C39.1793 5.95992 39.4069 5.73695 40.1831 5.80013C41.0147 5.84659 40.8481 5.84659 41.6797 5.80013C42.1163 5.80013 42.2357 5.94877 42.2357 6.36497C42.2357 6.81462 42.2628 23.3949 42.3086 23.9359C42.3086 28.8639 40.0372 29.9591 35.9039 29.9591C31.7706 29.9591 17.4777 30 17.4777 30H4.9763C2.18868 29.9926 0.0615741 28.0379 0.0391835 25.2471C-0.0130612 18.4095 -0.0130612 11.5719 0.0391835 4.73436C0.0653058 2.0179 2.21107 7.10618e-05 4.94272 7.10618e-05H37.3023C38.2762 -0.00518812 39.2292 0.281583 40.0372 0.823069C40.8452 1.36456 41.4708 2.13568 41.8327 3.03611C41.8327 3.03611 41.7695 2.97628 41.1983 2.97628H24.6315V2.98371Z" fill="#00A6CA"/>
<path fill-rule="evenodd" clip-rule="evenodd" d="M11.9532 7.48042C9.33786 8.10727 6.95125 10.4609 6.25748 13.098C5.98335 14.1401 5.97097 16.1611 6.23301 17.1295C6.52214 18.1984 7.2331 19.4982 7.97639 20.3167C9.30667 21.8124 11.9532 22.9676 13.8141 22.9676C17.3378 22.9592 20.6742 20.4537 21.5631 17.1486C21.8361 16.1334 21.8205 13.978 21.5331 13.01C21.1305 11.6541 20.3483 10.3632 19.3605 9.42398C17.4114 7.57113 14.6255 6.84017 11.9532 7.48042ZM15.8277 10.8188C16.8062 11.245 17.8599 12.2854 18.2918 13.2517C18.7558 14.2904 18.7957 15.2735 18.4231 16.4881C17.6399 19.0407 14.7776 20.442 12.2552 19.5077C9.73012 18.5724 8.4406 15.6412 9.50566 13.2576C9.89777 12.38 10.8947 11.3406 11.761 10.9058C13.1545 10.2067 14.3626 10.1809 15.8277 10.8188Z" fill="#00A6CA"/>
<path d="M34.6823 10C35.4586 10 36.0879 10.6013 36.0879 11.3431L36.0879 11.2833C36.0879 12.0251 35.4586 12.6265 34.6823 12.6265L25.4053 12.6265C24.629 12.6265 23.9997 12.0251 23.9997 11.2833L23.9997 11.3431C23.9997 10.6013 24.629 10 25.4053 10L34.6823 10Z" fill="#00A6CA"/>
<path d="M29.9416 17C30.6658 17 31.2529 17.6013 31.2529 18.3431L31.2529 18.2833C31.2529 19.0251 30.6658 19.6265 29.9416 19.6265L25.3114 19.6265C24.5871 19.6265 24 19.0251 24 18.2833L24 18.3431C24 17.6013 24.5871 17 25.3114 17L29.9416 17Z" fill="#00A6CA"/>
</svg>
