<svg width="38" height="30" viewBox="0 0 38 30" fill="none" xmlns="http://www.w3.org/2000/svg">
<path fill-rule="evenodd" clip-rule="evenodd" d="M2.51261 0.309183C1.63985 0.687495 0.854847 1.38866 0.399532 2.19634C0.0579655 2.8024 0.056856 2.83719 0.0109125 14.6548C-0.0214063 22.9485 0.0170907 26.688 0.139395 27.1133C0.409036 28.0515 1.24362 29.0322 2.20828 29.5442L3.06711 30H18.9889H34.9107L35.7724 29.5442C36.6546 29.0776 37.4414 28.1998 37.7899 27.2932C37.9249 26.9422 37.9792 24.0468 37.988 16.7439L38 6.67835H36.3399H34.6799L34.6368 16.4548C34.6016 24.4722 34.5547 26.2763 34.3765 26.4823C34.177 26.7126 32.9049 26.7334 18.9889 26.7334C5.07103 26.7334 3.80093 26.7126 3.60132 26.4822C3.42135 26.2743 3.38396 24.2955 3.38396 14.9979V3.76474L3.758 3.47439C4.12095 3.19241 4.62776 3.1839 20.9868 3.1839C39.7188 3.1839 38.1458 3.2819 37.5387 2.15228C37.1321 1.39626 36.3323 0.685064 35.4652 0.309183C34.7635 0.00486183 34.5024 0 18.9889 0C3.47537 0 3.21428 0.00486183 2.51261 0.309183ZM13.3209 6.67956C12.4 6.86477 11.1444 7.54193 10.5811 8.15711C10.3255 8.43636 9.92298 9.02115 9.68661 9.45674C9.31194 10.1468 9.25664 10.4247 9.25664 11.6162C9.25664 12.8058 9.31225 13.086 9.68439 13.7715L10.1121 14.5592L9.20294 15.4427C8.16113 16.4551 7.53931 17.4811 7.1914 18.7623C6.61141 20.8977 7.08336 22.3775 8.57763 23.1089C9.14099 23.3846 9.50363 23.3996 14.6097 23.3586L20.0424 23.315L20.6163 22.9377C20.9318 22.7303 21.3445 22.2967 21.5335 21.9743C21.8344 21.4609 21.8691 21.2124 21.8127 19.9759C21.7555 18.723 21.6828 18.4369 21.1669 17.4358C20.7729 16.6714 20.2883 16.0357 19.664 15.4646L18.7422 14.6215L19.182 13.7267C19.548 12.9816 19.6217 12.628 19.622 11.6162C19.6223 10.5949 19.5502 10.2545 19.1709 9.48576C18.1377 7.39122 15.6697 6.20736 13.3209 6.67956ZM15.6247 10.389C16.1456 10.8469 16.2164 10.9937 16.2164 11.6162C16.2164 12.2386 16.1456 12.3854 15.6247 12.8433C14.9638 13.4242 14.3608 13.5115 13.6042 13.1364C12.9643 12.819 12.6519 12.3308 12.6519 11.6484C12.6519 10.9047 12.8618 10.5347 13.4937 10.1652C14.2713 9.71047 14.9316 9.7799 15.6247 10.389ZM25.4844 15.1106V16.7059H28.2568H31.0293V15.1106V13.5153H28.2568H25.4844V15.1106ZM15.6925 16.8846C16.8579 17.2194 18.219 18.6692 18.3783 19.7455L18.4344 20.1244L14.4342 20.1649C9.88227 20.2111 10.1315 20.2979 10.8089 18.9027C11.6517 17.1669 13.7121 16.3154 15.6925 16.8846ZM25.4844 21.7956V23.3909H28.2568H31.0293V21.7956V20.2003H28.2568H25.4844V21.7956Z" fill="#00A6CA"/>
</svg>
