<svg width="38" height="30" viewBox="0 0 38 30" fill="none" xmlns="http://www.w3.org/2000/svg">
<path d="M17.5 6.2218C17.5 5.54702 18.1218 5 18.8889 5H19.8611C20.6282 5 21.25 5.54702 21.25 6.2218V14.2857C21.25 14.9605 20.6282 15.5075 19.8611 15.5075H18.8889C18.1218 15.5075 17.5 14.9605 17.5 14.2857V6.2218Z" fill="#00A6CA"/>
<path d="M17.5 18.3177C17.5 17.6429 18.1218 17.0959 18.8889 17.0959H19.8611C20.6282 17.0959 21.25 17.6429 21.25 18.3177V20.0282C21.25 20.703 20.6282 21.25 19.8611 21.25H18.8889C18.1218 21.25 17.5 20.703 17.5 20.0282V18.3177Z" fill="#00A6CA"/>
<path fill-rule="evenodd" clip-rule="evenodd" d="M21.8675 3.53669H4.91153C3.7056 3.53669 3.58633 3.65215 3.58633 4.83653V21.8664C3.58633 22.9947 3.72879 23.1333 4.86847 23.1333H32.5698C33.7493 23.1333 33.8951 23.0013 33.8951 21.8136C33.8951 20.2543 33.8969 18.6949 33.8987 17.1355C33.9024 14.0168 33.9061 10.898 33.8951 7.77931C33.8951 7.06671 34.0971 6.86876 34.7863 6.92485C35.5245 6.96609 36.2644 6.96609 37.0027 6.92485C37.3903 6.92485 37.4963 7.05681 37.4963 7.42631C37.4963 9.94671 37.4972 12.4574 37.4981 14.9715C37.4988 16.7153 37.4994 18.4607 37.4998 20.2122L37.5 22.5575V24.7168C37.5 27.6347 35.1247 30 32.1946 30H29.795C29.4059 30 29.0905 29.6859 29.0905 29.2985V26.6211C26.1079 26.6251 25.6253 26.6268 22.6428 26.5973L15.5165 26.6336H4.4179C1.94308 26.627 0.0546646 24.8917 0.0347866 22.4141C-0.0115955 16.3437 -0.0115955 10.2734 0.0347866 4.2031C0.0579777 1.79147 1.96296 6.30877e-05 4.38808 6.30877e-05H33.1165C33.9811 -0.00460595 34.8272 0.249986 35.5445 0.73071C36.2618 1.21143 36.8172 1.89603 37.1385 2.69542C37.4466 3.474 37.4102 3.53009 36.5753 3.53009H21.8675V3.53669Z" fill="#00A6CA"/>
</svg>
