<svg width="31" height="30" viewBox="0 0 31 30" fill="none" xmlns="http://www.w3.org/2000/svg">
<path d="M30.69 15H28.52C28.3495 15 28.21 15.135 28.21 15.3V27.3H2.79V2.7H15.19C15.3605 2.7 15.5 2.565 15.5 2.4V0.3C15.5 0.135 15.3605 0 15.19 0H1.24C0.554125 0 0 0.53625 0 1.2V28.8C0 29.4638 0.554125 30 1.24 30H29.76C30.4459 30 31 29.4638 31 28.8V15.3C31 15.135 30.8605 15 30.69 15Z" fill="#00A6CA"/>
<path d="M10.0715 15.9156L10 20.3903C9.99628 20.7253 10.2672 21 10.6022 21H10.6172L15.0579 20.8909C15.1331 20.8871 15.2084 20.857 15.2611 20.8043L30.9125 5.18602C31.0292 5.06936 31.0292 4.87742 30.9125 4.76075L26.2348 0.0865593C26.1746 0.0263442 26.0993 0 26.0203 0C25.9412 0 25.866 0.0301076 25.8058 0.0865593L10.1581 15.7048C10.1037 15.7617 10.0728 15.8369 10.0715 15.9156ZM12.4612 16.8038L26.0203 3.27419L27.7213 4.97151L14.1547 18.5086L12.4349 18.55L12.4612 16.8038Z" fill="#00A6CA"/>
</svg>
