<svg width="32" height="32" viewBox="0 0 32 32" fill="none" xmlns="http://www.w3.org/2000/svg">
<path d="M5.33317 5.3335H23.9998C25.4705 5.3335 26.6665 6.5295 26.6665 8.00016V13.3335L23.9998 15.9324V10.6668L15.4665 17.0668C15.2356 17.2397 14.9549 17.3332 14.6665 17.3332C14.3781 17.3332 14.0974 17.2397 13.8665 17.0668L5.33317 10.6668V22.6668H17.3332L14.6665 25.3335H5.33317C3.8625 25.3335 2.6665 24.1375 2.6665 22.6668V8.00016C2.6665 6.5295 3.8625 5.3335 5.33317 5.3335ZM14.6665 14.3335L23.1118 8.00016H6.22117L14.6665 14.3335Z" fill="#00A6CA"/>
<path fill-rule="evenodd" clip-rule="evenodd" d="M27.6251 14.8893C27.2778 15.0552 26.2499 16.0351 22.8126 19.478L18.4418 23.8557L18.8325 24.2536C19.3041 24.7338 19.6861 24.8839 20.0941 24.7492C20.2929 24.6836 21.6318 23.4045 24.4445 20.5927C27.2053 17.8329 28.5668 16.5309 28.692 16.5309C28.92 16.5309 30.1428 17.7676 30.1428 17.9982C30.1428 18.0936 28.4625 19.8422 26.0401 22.2676C23.2962 25.015 21.918 26.4558 21.8786 26.6182C21.786 26.9998 21.9023 27.2834 22.345 27.7565L22.7557 28.1954L27.1651 23.7979C30.6337 20.3385 31.6194 19.3061 31.7853 18.9589C32.0587 18.3868 32.0728 17.543 31.8184 16.9827C31.5793 16.4559 30.3118 15.1742 29.7566 14.8976C29.1442 14.5926 28.2539 14.5891 27.6251 14.8893ZM17.3335 27.3466V29.3332H19.3425H21.3515L19.3653 27.3466C18.2729 26.254 17.3688 25.36 17.3563 25.36C17.3437 25.36 17.3335 26.254 17.3335 27.3466Z" fill="#00A6CA"/>
</svg>
