<svg width="36" height="30" viewBox="0 0 36 30" fill="none" xmlns="http://www.w3.org/2000/svg">
<path fill-rule="evenodd" clip-rule="evenodd" d="M20.9587 7.97674H4.70741C3.55159 7.97674 3.43728 8.08684 3.43728 9.21614V25.4542C3.43728 26.5301 3.57382 26.6622 4.66613 26.6622H31.2162C32.3466 26.6622 32.4864 26.5363 32.4864 25.4039C32.4864 23.917 32.4881 22.4302 32.4899 20.9433C32.4934 17.9696 32.4969 14.9958 32.4864 12.0221C32.4864 11.3426 32.6801 11.1539 33.3405 11.2074C34.0481 11.2467 34.7573 11.2467 35.4648 11.2074C35.8363 11.2074 35.9379 11.3332 35.9379 11.6855C35.9379 12.0661 35.961 24.4085 36 24.8665C36 29.038 34.0672 29.9652 30.5503 29.9652C27.0333 29.9652 14.8716 29.9998 14.8716 29.9998H4.23429C1.86232 29.9935 0.0523928 28.3388 0.0333408 25.9764C-0.0111136 20.1883 -0.0111136 14.4002 0.0333408 8.61217C0.0555681 6.31266 1.88138 4.60455 4.20571 4.60455H31.7402C32.5689 4.6001 33.3797 4.84286 34.0672 5.30123C34.7548 5.7596 35.2871 6.41237 35.595 7.17459C35.8903 7.91697 35.8554 7.97045 35.0552 7.97045H20.9587V7.97674Z" fill="#00A6CA"/>
<path fill-rule="evenodd" clip-rule="evenodd" d="M13.8855 3.06983V5.62801H10.7998V2.55819C10.7998 1.14534 11.9511 0 13.3712 0H23.6569C25.0771 0 26.2284 1.14534 26.2284 2.55819V5.62801H23.1427V3.06983H13.8855Z" fill="#00A6CA"/>
<path fill-rule="evenodd" clip-rule="evenodd" d="M33.9431 16.3726H3.08594V13.3027H33.9431V16.3726Z" fill="#00A6CA"/>
<path fill-rule="evenodd" clip-rule="evenodd" d="M14.4004 15.861C14.4004 14.1656 15.7819 13.8145 17.4861 13.8145H19.5432C21.2474 13.8145 22.629 14.1656 22.629 15.861C22.629 17.5564 21.2474 18.9308 19.5432 18.9308H17.4861C15.7819 18.9308 14.4004 17.5564 14.4004 15.861Z" fill="#00A6CA"/>
</svg>
