<svg width="30" height="30" viewBox="0 0 30 30" fill="none" xmlns="http://www.w3.org/2000/svg">
<path d="M14.9924 29.9992C12.1254 29.9984 9.31869 29.1757 6.90484 27.6284C4.491 26.0812 2.57117 23.8742 1.37282 21.2691C0.174479 18.664 -0.252152 15.7699 0.143481 12.9297C0.539114 10.0895 1.74043 7.42229 3.60508 5.24403C5.46974 3.06578 7.91959 1.4678 10.6644 0.639442C13.4091 -0.188919 16.3338 -0.212947 19.0918 0.570206C21.8498 1.35336 24.3255 2.91087 26.2257 5.05819C28.1259 7.20551 29.3708 9.85265 29.8131 12.686C30.4429 16.8672 29.4758 20.6471 26.9927 24.0618C26.6722 24.5022 26.4744 24.5106 26.1232 24.1092C25.6383 23.5517 24.8468 23.1391 24.6517 22.5203C24.4567 21.9015 25.2704 21.3523 25.5909 20.7419C26.5121 19.0356 27.0079 17.1321 27.0361 15.1931C27.0644 13.2541 26.6242 11.337 25.7532 9.60456C24.8821 7.87214 23.6058 6.37563 22.0327 5.24219C20.4596 4.10874 18.6362 3.37185 16.7175 3.09414C10.2825 2.09342 4.04268 6.70954 3.1035 13.1459C2.14202 19.73 6.38088 25.6841 12.9217 26.8577C14.4889 27.1524 16.0999 27.1216 17.6547 26.7673C19.2095 26.4129 20.6748 25.7425 21.9596 24.7977C22.3553 24.5189 22.5699 24.5189 22.8793 24.8841C23.2908 25.3497 23.7301 25.79 24.1947 26.2026C24.504 26.4814 24.5096 26.6402 24.1612 26.9051C22.1397 28.4477 19.7632 29.458 17.2498 29.8431C16.5026 29.955 15.7478 30.0072 14.9924 29.9992Z" fill="#D74025"/>
<path d="M16.4843 12.1786C16.4843 13.5528 16.4676 14.9299 16.4843 16.3041C16.4843 16.7501 16.3923 16.9397 15.9045 16.909C15.2411 16.8672 14.5721 16.8895 13.9059 16.909C13.6271 16.909 13.5156 16.8254 13.5156 16.5327C13.5156 13.6281 13.5156 10.7235 13.5156 7.81892C13.5156 7.50393 13.6606 7.45933 13.9198 7.46212C14.6306 7.46212 15.3414 7.48442 16.0523 7.46212C16.4258 7.44539 16.4871 7.60707 16.4843 7.93042C16.476 9.3409 16.4843 10.7597 16.4843 12.1786Z" fill="#D74025"/>
<path d="M13.5264 21.2017C13.5264 19.7383 13.5264 19.7383 15.0149 19.7383C16.5034 19.7383 16.4839 19.7383 16.4839 21.2268C16.4839 22.7153 16.4839 22.7265 15.0233 22.7265C13.5626 22.7265 13.5264 22.7265 13.5264 21.2017Z" fill="#D74025"/>
</svg>
