<svg width="30" height="24" viewBox="0 0 30 24" fill="none" xmlns="http://www.w3.org/2000/svg">
<path fill-rule="evenodd" clip-rule="evenodd" d="M7.6041 4.29439C3.77363 6.65626 0.517711 8.70169 0.368684 8.8397C0.0166387 9.16581 -0.0926976 9.68871 0.0814759 10.213C0.351426 11.0255 0.26625 11.0131 5.84116 11.0486L10.8706 11.0806L10.9028 16.1973L10.935 21.314L9.54688 21.2793L8.15879 21.2447L8.12612 17.5403L8.09358 13.8359H6.80102H5.50859V17.5709V21.3059H3.41308H1.31758V22.653V24H7.48083H13.6441V17.5097V11.0193H15H16.3559V17.5097V24H22.5192H28.6824V22.653V21.3059H26.5856H24.4887L24.5209 16.1932L24.553 11.0806L26.8728 11.0473C29.4607 11.01 29.6731 10.9519 29.9185 10.213C30.0927 9.68871 29.9834 9.16581 29.6313 8.8397C29.4823 8.70169 26.2264 6.65626 22.3959 4.29439C16.7062 0.786064 15.3524 0 15 0C14.6476 0 13.2938 0.786064 7.6041 4.29439ZM19.563 5.69238L23.9322 8.38648L19.4661 8.41856C17.0097 8.43632 12.9909 8.43632 10.5353 8.41856L6.07068 8.38648L10.4429 5.67157C12.8475 4.1783 14.9003 2.96596 15.0044 2.97747C15.1086 2.98886 17.16 4.21063 19.563 5.69238ZM21.8412 16.1626V21.2447L20.4545 21.2793L19.0677 21.314V16.2482C19.0677 13.4622 19.1065 11.1441 19.1538 11.0971C19.2012 11.0501 19.8252 11.0271 20.5405 11.046L21.8412 11.0806V16.1626Z" fill="#00A6CA"/>
</svg>
