<svg width="41" height="35" viewBox="0 0 41 35" fill="none" xmlns="http://www.w3.org/2000/svg">
<path fill-rule="evenodd" clip-rule="evenodd" d="M3.1554 1.31006C2.22947 1.73008 1.39666 2.50854 0.913612 3.40524C0.551242 4.07811 0.550065 4.11674 0.501323 17.2371C0.467036 26.445 0.507878 30.5967 0.637632 31.0689C0.923696 32.1105 1.80912 33.1993 2.83253 33.7677L3.74366 34.2738H20.6352H37.5268L38.441 33.7677C39.377 33.2497 40.2116 32.2751 40.5814 31.2686C40.7246 30.8789 40.7822 27.6644 40.7915 19.5564L40.8043 8.38132H39.043H37.2819L37.2362 19.2354C37.1989 28.1367 37.1491 30.1396 36.96 30.3683C36.7484 30.6241 35.3988 30.6472 20.6352 30.6472C5.86965 30.6472 4.52219 30.6241 4.31041 30.3682C4.11948 30.1374 4.07981 27.9405 4.07981 17.6179V5.14653L4.47664 4.82419C4.8617 4.51111 5.39937 4.50167 22.7548 4.50167C42.6277 4.50167 40.9589 4.61047 40.3148 3.35633C39.8836 2.51697 39.0349 1.72738 38.1151 1.31006C37.3707 0.972195 37.0937 0.966797 20.6352 0.966797C4.17679 0.966797 3.89981 0.972195 3.1554 1.31006ZM14.622 8.38267C13.645 8.58829 12.313 9.3401 11.7153 10.0231C11.4442 10.3331 11.0171 10.9824 10.7664 11.466C10.3689 12.2321 10.3102 12.5406 10.3102 13.8634C10.3102 15.1842 10.3692 15.4953 10.764 16.2563L11.2178 17.131L10.2532 18.1118C9.14796 19.2357 8.48826 20.3748 8.11917 21.7973C7.50384 24.1681 8.00454 25.8111 9.58983 26.6231C10.1875 26.9291 10.5722 26.9458 15.9893 26.9003L21.7529 26.8518L22.3617 26.433C22.6965 26.2028 23.1343 25.7213 23.3349 25.3634C23.654 24.7934 23.6908 24.5175 23.631 23.1448C23.5703 21.7536 23.4932 21.436 22.9459 20.3246C22.5279 19.476 22.0138 18.7702 21.3514 18.1361L20.3735 17.2001L20.8401 16.2066C21.2284 15.3794 21.3065 14.9869 21.3069 13.8634C21.3072 12.7296 21.2307 12.3517 20.8283 11.4982C19.7322 9.17277 17.1139 7.85841 14.622 8.38267ZM17.0662 12.501C17.6188 13.0094 17.6939 13.1724 17.6939 13.8634C17.6939 14.5545 17.6188 14.7175 17.0662 15.2259C16.3649 15.8707 15.7252 15.9677 14.9225 15.5513C14.2437 15.1989 13.9122 14.6569 13.9122 13.8992C13.9122 13.0735 14.1349 12.6628 14.8054 12.2525C15.6303 11.7477 16.3308 11.8248 17.0662 12.501ZM27.5263 17.7431V19.5142H30.4676H33.409V17.7431V15.9719H30.4676H27.5263V17.7431ZM17.1381 19.7126C18.3744 20.0844 19.8184 21.6939 19.9875 22.8889L20.047 23.3096L15.8031 23.3546C10.9739 23.4059 11.2383 23.5022 11.957 21.9532C12.8512 20.026 15.037 19.0807 17.1381 19.7126ZM27.5263 25.165V26.9362H30.4676H33.409V25.165V23.3939H30.4676H27.5263V25.165Z" fill="#3EA3CE"/>
</svg>
