<svg width="30" height="30" viewBox="0 0 30 30" fill="none" xmlns="http://www.w3.org/2000/svg">
<path fill-rule="evenodd" clip-rule="evenodd" d="M11.7878 0.284501C6.2738 1.44065 1.87966 5.67645 0.433402 11.2295C-0.018571 12.9648 -0.135317 15.741 0.17002 17.4906C1.43573 24.742 7.66926 30 15 30C18.1199 30 21.7732 28.7929 24.0247 27.0183L24.5381 26.6136L23.5093 25.5795L22.4805 24.5455L21.7897 25.0159C19.0537 26.8787 15.3245 27.5362 12.1124 26.722C9.90419 26.1623 8.32912 25.3002 6.68824 23.7535C4.95072 22.1157 3.75256 20.0546 3.18625 17.7298C2.82931 16.2641 2.79178 13.923 3.10288 12.5204C4.12009 7.93397 7.48978 4.42372 12.0513 3.19873C13.6751 2.76262 16.325 2.76262 17.9487 3.19873C22.5102 4.42372 25.8799 7.93397 26.8971 12.5204C27.2082 13.923 27.1707 16.2641 26.8138 17.7298C26.5015 19.0117 25.7341 20.7749 25.0663 21.7447C24.8377 22.0768 24.6507 22.3994 24.6507 22.4616C24.6507 22.5238 25.0973 23.0181 25.6434 23.56L26.6359 24.5452L27.227 23.7429C28.4864 22.0334 29.4351 19.7525 29.8317 17.4805C30.1351 15.7427 30.0172 12.9599 29.5673 11.2323C28.1076 5.62783 23.7062 1.41253 18.1278 0.276465C16.3026 -0.0952132 13.5822 -0.0917311 11.7878 0.284501ZM13.5256 8.70545V10.1788H15H16.4744V8.70545V7.23214H15H13.5256V8.70545ZM13.5256 17.8132V22.5011H15H16.4744V17.8132V13.1254H15H13.5256V17.8132Z" fill="#00A6CA"/>
</svg>
