<svg width="39" height="33" viewBox="0 0 39 33" fill="none" xmlns="http://www.w3.org/2000/svg">
<path fill-rule="evenodd" clip-rule="evenodd" d="M3.97903 1.0615C2.82612 1.40416 1.62433 2.43275 1.17896 3.45752C0.993356 3.88466 0.956269 6.10973 0.959134 16.6405C0.962477 28.5708 0.979507 29.3453 1.25281 29.9218C1.68943 30.8427 2.30449 31.4613 3.21912 31.8994L4.04254 32.294L15.9096 32.2906C27.0506 32.2874 27.8159 32.2701 28.4136 32.0082C29.3628 31.5923 30.0501 30.9694 30.5273 30.0932L30.954 29.3096L31.0078 24.8714L31.0616 20.4332L29.2999 22.1141L27.5381 23.7949V26.1314C27.5381 28.2639 27.5103 28.4947 27.2198 28.774C26.9076 29.0741 26.6892 29.0801 15.9182 29.0801C5.14723 29.0801 4.92884 29.0741 4.61669 28.774C4.30375 28.4731 4.29834 28.2639 4.29834 16.6309C4.29834 5.35769 4.31219 4.78179 4.58947 4.5406C4.85434 4.30996 5.87275 4.28731 15.9459 4.28731C26.4637 4.28731 27.0243 4.30109 27.2747 4.56723C27.4958 4.80214 27.5381 5.22561 27.5381 7.20459V9.56205L29.3032 7.88119L31.0685 6.20033L30.9741 5.06155C30.8277 3.29484 30.0533 2.08672 28.5812 1.32901C27.9373 0.997526 27.9127 0.996915 16.157 0.969826C9.6785 0.954981 4.19838 0.996149 3.97903 1.0615ZM29.0067 12.8994L22.1231 19.5193L23.3604 20.7018L24.5975 21.8844L31.4002 15.3426C35.1417 11.7446 38.2029 8.73042 38.2029 8.64456C38.2029 8.55856 37.6826 7.99138 37.0467 7.38411L35.8904 6.27976L29.0067 12.8994ZM19.193 21.7433C19.1484 21.8645 18.908 22.7963 18.6589 23.8142L18.2059 25.6648L20.2575 25.1674C21.3858 24.8939 22.3372 24.6429 22.3716 24.6099C22.4059 24.5768 21.7232 23.8687 20.8541 23.0363C19.7763 22.0039 19.2484 21.593 19.193 21.7433Z" fill="#3EA3CE"/>
</svg>
