<svg width="30" height="30" viewBox="0 0 30 30" fill="none" xmlns="http://www.w3.org/2000/svg">
<path fill-rule="evenodd" clip-rule="evenodd" d="M9.76324 0.120084C9.34425 0.187388 8.48163 0.487183 7.84644 0.786296C5.89295 1.70603 4.42146 3.45538 3.881 5.50057C3.63931 6.41538 3.60704 8.34112 3.8184 9.24529C4.05026 10.237 4.736 11.5037 5.4687 12.2939L6.15306 13.0319L5.07174 13.7261C3.43224 14.7787 2.01962 16.3398 1.175 18.0323C0.102409 20.1818 0.00212997 20.7026 0.000190877 24.1297C-0.0014712 27.0571 -0.000501412 27.0668 0.372912 27.7642C0.578733 28.1489 1.03968 28.7175 1.39731 29.0277C2.42849 29.9223 2.88293 30 7.08757 30C9.09245 30 10.7315 29.9846 10.7299 29.9659C10.7284 29.9472 10.5114 29.3174 10.248 28.5665L9.76892 27.2014L6.7298 27.1331C3.72255 27.0655 3.68668 27.0613 3.32158 26.7235L2.95273 26.3822L3.01104 23.7884C3.06174 21.5332 3.10994 21.0835 3.38058 20.345C4.26979 17.9179 6.43783 15.91 8.93691 15.1987C9.35852 15.0789 10.4508 14.9248 11.3642 14.8564C13.1686 14.7213 14.0312 14.4714 15.1639 13.7549C16.6616 12.8076 17.8689 11.2527 18.3706 9.62481C18.7523 8.38604 18.6889 6.17784 18.2364 4.95409C17.567 3.1433 16.1656 1.61715 14.4032 0.779198C12.8407 0.0365341 11.484 -0.156231 9.76324 0.120084ZM13.0181 3.38862C13.8996 3.79941 14.8718 4.75531 15.2991 5.63136C15.7894 6.63668 15.7856 8.2143 15.2905 9.24911C14.8878 10.0903 13.9751 11.0573 13.233 11.4286C11.4922 12.2999 9.35907 11.9642 7.97567 10.6012C5.57688 8.23778 6.4877 4.40965 9.73512 3.20555C10.6308 2.8734 12.0872 2.95463 13.0181 3.38862Z" fill="#00A6CA"/>
<path fill-rule="evenodd" clip-rule="evenodd" d="M14.4824 20.459V22.2972H22.241H29.9997V20.459V18.6208H22.241H14.4824V20.459ZM14.4824 28.162V30.0002H22.241H29.9997V28.162V26.3238H22.241H14.4824V28.162Z" fill="#00A6CA"/>
</svg>
