<svg width="34" height="29" viewBox="0 0 34 29" fill="none" xmlns="http://www.w3.org/2000/svg">
<path d="M15.1669 2.90379C15.9415 1.59651 17.8335 1.59651 18.6081 2.90379L31.9858 25.4805C32.7758 26.8137 31.8148 28.5 30.2652 28.5H3.50983C1.96015 28.5 0.999229 26.8137 1.78921 25.4805L15.1669 2.90379Z" fill="#00A6CA"/>
<path d="M16.5091 24C17.3636 24 18 23.5231 18 22.8308C18 22.1077 17.3636 21.6615 16.5091 21.6615C15.6909 21.6615 15.0182 22.1077 15.0182 22.8308C15.0182 23.5231 15.6909 24 16.5091 24ZM15.2182 20.9077H17.8L17.9636 13H15L15.2182 20.9077Z" fill="white"/>
</svg>
