<svg width="32" height="32" viewBox="0 0 32 32" fill="none" xmlns="http://www.w3.org/2000/svg">
<circle cx="16" cy="16" r="16" fill="#00A6CA"/>
<path fill-rule="evenodd" clip-rule="evenodd" d="M15.1228 7.05228C14.1189 7.21115 12.9083 7.72108 11.923 8.40011C10.7837 9.18528 9.11959 11.0172 8.4409 12.2331L8.19558 12.6725L8.726 13.351L9.25642 14.0295L9.82612 13.1818C11.6228 10.5089 13.8217 9.09228 16.1684 9.09605C17.5138 9.09827 18.6098 9.45406 19.8232 10.2825C20.5305 10.7655 21.5073 11.7275 22.0496 12.4753L22.4743 13.0609L21.5105 13.0653L20.5466 13.0695V14.0836V15.0976H22.3142C23.7299 15.0976 24.1183 15.0698 24.2649 14.9577C24.5311 14.7543 24.842 14.1925 24.9209 13.7723C24.9602 13.5633 24.9896 12.3871 24.9898 11.0173L24.9902 8.62697H24.2714H23.5525V10.0756C23.5525 10.8724 23.5289 11.5243 23.5 11.5243C23.4711 11.5243 23.3462 11.3681 23.2223 11.1772C22.8556 10.612 21.7873 9.464 21.0942 8.89034C19.5499 7.61214 17.8604 6.96845 16.1357 7.00119C15.7044 7.0094 15.2486 7.03238 15.1228 7.05228ZM8.74391 16.3447C8.42789 16.5568 8.17199 17.0199 8.07214 17.5604C8.02967 17.7899 8.00059 18.8969 8.00039 20.2887L8 22.6307H8.71882H9.43763V21.1769V19.7232L9.9672 20.4006C12.1983 23.2547 14.7916 24.5748 17.5605 24.2659C19.4414 24.0561 21.1797 23.1036 22.7824 21.4047C23.3154 20.8397 24.6175 19.0749 24.7294 18.7657C24.7787 18.6299 24.6937 18.4793 24.2687 17.9492L23.7475 17.2993L23.026 18.3211C20.415 22.0188 17.1438 23.1497 13.9139 21.4713C12.915 20.9523 12.0281 20.1798 11.042 18.9702L10.5225 18.333L11.4831 18.3062L12.4436 18.2796V17.2197V16.16L10.7282 16.1621C9.19428 16.1641 8.98445 16.1834 8.74391 16.3447Z" fill="white"/>
</svg>
