<svg width="41" height="30" viewBox="0 0 41 30" fill="none" xmlns="http://www.w3.org/2000/svg">
<path d="M16.1538 12.857H10.3001L10.3021 12.8377C10.5658 11.4676 11.0818 10.1662 11.8206 9.0083C12.92 7.28928 14.462 5.94212 16.2629 5.12746C16.8727 4.85317 17.5087 4.64316 18.1569 4.50387C19.5015 4.21457 20.8871 4.21457 22.2317 4.50387C24.1641 4.92408 25.9372 5.93837 27.3303 7.42039L30.1895 4.39458C28.9009 3.02662 27.3762 1.9346 25.6988 1.17805C24.8432 0.793677 23.9537 0.500791 23.0435 0.303742C21.1652 -0.101247 19.2295 -0.101247 17.3513 0.303742C16.4403 0.501607 15.5501 0.795206 14.6939 1.1802C12.171 2.31617 10.0112 4.20191 8.47471 6.61036C7.44064 8.23438 6.7175 10.0583 6.34644 11.9784C6.2899 12.2677 6.25962 12.5634 6.21923 12.857H0L8.07692 21.4287L16.1538 12.857ZM24.2308 17.1428H30.0845L30.0825 17.16C29.5549 19.9067 28.0294 22.3225 25.8361 23.8845C24.7453 24.6692 23.5189 25.2168 22.2277 25.496C20.8838 25.7853 19.4988 25.7853 18.1549 25.496C16.8639 25.2161 15.6376 24.6685 14.5465 23.8845C14.0107 23.4998 13.5104 23.0621 13.0523 22.5773L10.1971 25.6074C11.4864 26.975 13.0118 28.0663 14.6899 28.8218C15.5461 29.2075 16.4406 29.5011 17.3452 29.6961C19.2227 30.1013 21.1579 30.1013 23.0354 29.6961C26.6549 28.8988 29.8387 26.6347 31.9099 23.3852C32.943 21.7624 33.6654 19.9399 34.0362 18.0214C34.0907 17.7321 34.123 17.4364 34.1634 17.1428H40.3846L32.3077 8.57114L24.2308 17.1428Z" fill="#00A6CA"/>
</svg>
