<svg width="38" height="37" viewBox="0 0 38 37" fill="none" xmlns="http://www.w3.org/2000/svg">
<path d="M36.2611 31.3036L27.4704 22.453C28.8408 20.1885 29.5637 17.5869 29.5593 14.9351C29.5593 6.93241 22.6715 1.8938e-07 14.7228 1.8938e-07C12.8331 -0.000307459 10.9617 0.374221 9.21573 1.10219C7.46974 1.83016 5.88329 2.89732 4.54701 4.24269C3.21073 5.58807 2.1508 7.18532 1.42775 8.9432C0.704698 10.7011 0.332702 12.5851 0.333008 14.4878C0.333008 22.4882 7.22087 29.4229 15.1672 29.4229C17.7142 29.4252 20.2157 28.7428 22.4132 27.4463L31.2505 36.3483C31.666 36.7656 32.229 37 32.816 37C33.4029 37 33.9659 36.7656 34.3815 36.3483L36.5751 34.1398C37.4381 33.2709 37.1241 32.1725 36.2611 31.3036ZM4.76208 14.4878C4.76178 13.1706 5.01919 11.8663 5.51963 10.6493C6.02007 9.43232 6.75373 8.3265 7.6787 7.39501C8.60367 6.46353 9.70184 5.72462 10.9105 5.22049C12.1191 4.71636 13.4146 4.45688 14.7228 4.45688C20.2266 4.45688 25.1302 9.39154 25.1302 14.9351C25.1296 17.5953 24.0797 20.1463 22.2114 22.0274C20.3431 23.9084 17.8093 24.9654 15.1672 24.966C9.66337 24.9637 4.76208 20.0267 4.76208 14.4878Z" fill="black"/>
</svg>
