<svg width="40" height="28" viewBox="0 0 40 28" fill="none" xmlns="http://www.w3.org/2000/svg">
<path fill-rule="evenodd" clip-rule="evenodd" d="M0.979492 2.78149V4.6123H2.86238H4.74527V2.78149V0.950684H2.86238H0.979492V2.78149ZM8.86969 2.78149V4.6123H24.2915H39.7132V2.78149V0.950684H24.2915H8.86969V2.78149ZM0.979492 14.3766V16.2946H2.86238H4.74527V14.3766V12.4586H2.86238H0.979492V14.3766ZM8.86969 14.3766V16.2946H24.2915H39.7132V14.3766V12.4586H24.2915H8.86969V14.3766ZM0.979492 25.8845V27.8025H2.86238H4.74527V25.8845V23.9666H2.86238H0.979492V25.8845ZM8.86969 25.8845V27.8025H24.2915H39.7132V25.8845V23.9666H24.2915H8.86969V25.8845Z" fill="#3EA3CE"/>
</svg>
