<svg width="33" height="30" viewBox="0 0 33 30" fill="none" xmlns="http://www.w3.org/2000/svg">
<path d="M31.7258 13.0857C32.9574 13.0857 33.4715 11.5664 32.4711 10.8661L17.2492 0.235346C17.0319 0.0824355 16.7694 0 16.4999 0C16.2304 0 15.968 0.0824355 15.7506 0.235346L0.528701 10.8661C-0.471741 11.5626 0.0424304 13.0857 1.27804 13.0857H3.74526V27.3978H0.875468C0.700091 27.3978 0.556602 27.5356 0.556602 27.7039V29.6939C0.556602 29.8622 0.700091 30 0.875468 30H32.1243C32.2997 30 32.4432 29.8622 32.4432 29.6939V27.7039C32.4432 27.5356 32.2997 27.3978 32.1243 27.3978H29.2545V13.0857H31.7258ZM11.2785 27.3978H6.61506V13.0857H11.2785V27.3978ZM18.8117 27.3978H14.1483V13.0857H18.8117V27.3978ZM26.3848 27.3978H21.6815V13.0857H26.3848V27.3978Z" fill="#00A6CA"/>
</svg>
