<svg width="42" height="43" viewBox="0 0 42 43" fill="none" xmlns="http://www.w3.org/2000/svg">
<path d="M20.8439 0.768921C9.41681 0.768921 0.151367 10.0167 0.151367 21.4219C0.151367 32.8272 9.41681 42.0749 20.8439 42.0749C32.271 42.0749 41.5364 32.8272 41.5364 21.4219C41.5364 10.0167 32.271 0.768921 20.8439 0.768921ZM20.8439 38.5713C11.3567 38.5713 3.6617 30.891 3.6617 21.4219C3.6617 11.9529 11.3567 4.27256 20.8439 4.27256C30.331 4.27256 38.0261 11.9529 38.0261 21.4219C38.0261 30.891 30.331 38.5713 20.8439 38.5713Z" fill="#ACACAC"/>
<path d="M30.4241 20.8267L16.7477 10.9151C16.638 10.8349 16.5081 10.7866 16.3726 10.7757C16.237 10.7648 16.1011 10.7916 15.9799 10.8533C15.8587 10.915 15.7571 11.009 15.6863 11.1249C15.6156 11.2408 15.5785 11.3741 15.5791 11.5098V31.333C15.5791 31.937 16.2627 32.2781 16.7477 31.9277L30.4241 22.0161C30.5186 21.9482 30.5955 21.8589 30.6485 21.7555C30.7016 21.6521 30.7292 21.5376 30.7292 21.4214C30.7292 21.3053 30.7016 21.1908 30.6485 21.0874C30.5955 20.984 30.5186 20.8946 30.4241 20.8267ZM18.5259 27.0042V15.8387V22.0161V27.0042Z" fill="#ACACAC"/>
</svg>
