<svg width="23" height="24" viewBox="0 0 23 24" fill="none" xmlns="http://www.w3.org/2000/svg">
<path d="M11.9228 3.91042e-08C12.9035 -0.000138387 13.8488 0.367243 14.5731 1.03001C15.2975 1.69277 15.7485 2.60304 15.8376 3.58209H21.9279C22.1995 3.58217 22.4609 3.6856 22.6594 3.87148C22.8579 4.05736 22.9785 4.31183 22.9971 4.58347C23.0156 4.85511 22.9305 5.12367 22.7591 5.33488C22.5877 5.54609 22.3428 5.6842 22.0737 5.72131L21.9279 5.73134H21.0946L19.2837 21.4639C19.203 22.1622 18.8691 22.8065 18.3455 23.2741C17.8218 23.7418 17.145 24.0001 16.4437 24H7.40191C6.70062 24.0001 6.02376 23.7418 5.50011 23.2741C4.97645 22.8065 4.64254 22.1622 4.56189 21.4639L2.74953 5.73134H1.91768C1.65864 5.73133 1.40836 5.63729 1.21313 5.4666C1.01791 5.29592 0.890938 5.06014 0.855708 4.80287L0.845703 4.65672C0.845714 4.39703 0.939526 4.14614 1.10979 3.95043C1.28006 3.75472 1.51525 3.62744 1.77189 3.59212L1.91768 3.58209H8.00793C8.09709 2.60304 8.54811 1.69277 9.27244 1.03001C9.99678 0.367243 10.9421 -0.000138387 11.9228 3.91042e-08V3.91042e-08ZM9.77884 8.95522C9.42866 8.95522 9.13565 9.17731 9.07562 9.46961L9.06419 9.58281V18.3589L9.07562 18.4707C9.13565 18.763 9.42866 18.9851 9.77884 18.9851C10.129 18.9851 10.422 18.763 10.4821 18.4707L10.4935 18.3575V9.58424L10.4821 9.46961C10.422 9.17875 10.129 8.95522 9.77884 8.95522ZM14.0667 8.95522C13.7166 8.95522 13.4236 9.17731 13.3635 9.46961L13.3521 9.58281V18.3589L13.3635 18.4707C13.4236 18.763 13.7166 18.9851 14.0667 18.9851C14.4169 18.9851 14.7099 18.763 14.77 18.4707L14.7814 18.3575V9.58424L14.77 9.46961C14.7099 9.17875 14.4169 8.95666 14.0667 8.95666V8.95522ZM11.9228 2.14925C11.0581 2.14925 10.3363 2.76537 10.1719 3.58209H13.6737C13.5079 2.76537 12.7875 2.14925 11.9228 2.14925V2.14925Z" fill="#3EA3CE"/>
</svg>
