<svg width="30" height="30" viewBox="0 0 30 30" fill="none" xmlns="http://www.w3.org/2000/svg">
<path fill-rule="evenodd" clip-rule="evenodd" d="M11.9033 0.231375C8.19526 1.04784 5.11931 2.99776 2.89383 5.94221C1.93256 7.21404 0.807164 9.54437 0.368127 11.1717C0.040701 12.3858 0.00596556 12.7406 0.000176364 14.9262C-0.00682452 17.633 0.191894 18.7148 1.08195 20.8171C4.73466 29.4438 15.3755 32.6733 23.267 27.5503C26.4584 25.4784 28.6882 22.35 29.6908 18.5376C29.9664 17.4893 30.005 17.0386 29.9995 14.9262C29.9939 12.7453 29.9585 12.3833 29.6333 11.1717C29.1429 9.34445 27.9095 6.92495 26.7255 5.46714C24.7199 2.99749 21.9376 1.21894 18.7615 0.376191C17.1338 -0.0558422 13.5508 -0.131469 11.9033 0.231375ZM17.8944 3.1773C19.9073 3.72412 21.1066 4.32416 22.6771 5.57038C26.9267 8.94231 28.3847 15.0051 26.1202 19.8866C22.881 26.8694 14.3599 29.2403 8.06924 24.9091C4.31676 22.3254 2.26604 17.6971 2.9318 13.3139C3.49901 9.5799 5.55013 6.50364 8.78818 4.53039C10.0097 3.78607 11.6171 3.22222 13.5189 2.87091C14.245 2.73682 16.9772 2.92803 17.8944 3.1773ZM13.9228 9.76374V13.5182H10.8262H7.7297V14.9932V16.4682L11.1292 16.4674C13.0521 16.467 14.7461 16.4065 15.0293 16.3282C15.699 16.1429 16.33 15.593 16.6316 14.9317C16.8543 14.4434 16.879 13.9748 16.8817 10.1995L16.8847 6.00926H15.4037H13.9228V9.76374Z" fill="#00A6CA"/>
</svg>
