<svg width="45" height="45" viewBox="0 0 45 45" fill="none" xmlns="http://www.w3.org/2000/svg">
<path d="M23 18.1222C25.0142 18.1222 26.5 16.6123 26.5 14.5611C26.5 12.5099 25.0142 11 23 11C20.9875 11 19.5 12.5099 19.5 14.5611C19.5 16.6123 20.9875 18.1222 23 18.1222ZM23 19.9027C19.1342 19.9027 16 22.773 16 26.3127V27H30V26.3127C30 22.773 26.8658 19.9027 23 19.9027Z" fill="#3EA3CE"/>
<path d="M36.2222 3H9.77778C7.69433 3 6 4.65945 6 6.7V30.75C6 32.7906 7.69433 34.45 9.77778 34.45H17.3333L23 40L28.6667 34.45H36.2222C38.3057 34.45 40 32.7906 40 30.75V6.7C40 4.65945 38.3057 3 36.2222 3ZM26.7778 30.75L23 34.45L19.2222 30.75H9.77778V6.7H36.2222L36.226 30.75H26.7778Z" fill="#3EA3CE"/>
</svg>
