<svg width="28" height="30" viewBox="0 0 28 30" fill="none" xmlns="http://www.w3.org/2000/svg">
<path fill-rule="evenodd" clip-rule="evenodd" d="M6.69571 0.650896C7.17134 0.418333 7.79481 0.180823 8.08134 0.122893C9.53392 -0.170253 11.2145 0.069912 12.4603 0.748651C13.9035 1.53492 15.2196 3.2506 15.633 4.88421C15.8536 5.7564 15.8636 7.44782 15.6527 8.25835C14.9044 11.1349 12.3157 13.1461 9.36158 13.1461C8.47503 13.1461 7.05246 13.5333 6.16216 14.0169C5.12858 14.5784 3.86312 15.9272 3.33262 17.0328C2.67092 18.4118 2.56752 18.9828 2.566 21.2677C2.56459 23.2599 2.56951 23.2998 2.85241 23.5909L3.14011 23.8872H5.71325H8.28639L8.5442 24.7607C8.68594 25.2412 8.90541 25.8431 9.03179 26.0982L9.26169 26.5621L5.94245 26.522L2.62321 26.482L1.95706 26.1453C1.23488 25.7802 0.723249 25.2563 0.30846 24.4571C0.0663639 23.9906 0.0408067 23.7589 0.0061042 21.7149C-0.0402048 18.9847 0.16883 17.6932 0.913409 16.1096C1.73173 14.3693 2.88758 13.046 4.51766 11.9833L5.23304 11.5169L4.72564 10.9239C4.11377 10.209 3.53157 9.11643 3.31374 8.27428C3.09404 7.42465 3.10658 5.62075 3.33789 4.81059C3.86241 2.9735 5.11252 1.42474 6.69571 0.650896ZM13.0165 5.01286C12.6689 4.20414 11.8208 3.33339 11.0332 2.97676C9.44587 2.25807 7.85718 2.59949 6.68211 3.91184C5.67984 5.03108 5.40914 6.25749 5.84104 7.72154C6.06074 8.46617 6.19955 8.70067 6.7657 9.28346C7.56526 10.1065 8.43013 10.491 9.48163 10.491C12.1945 10.491 14.1009 7.53653 13.0165 5.01286ZM15.2405 13.9474C15.8452 13.6466 16.7094 13.3207 17.1607 13.2229C19.0124 12.8219 20.8744 13.063 22.5537 13.9216C23.1827 14.2431 23.7208 14.5848 24.1932 14.9723L22.3191 16.9356C21.608 16.3673 20.7785 15.9632 19.9292 15.8011C16.5256 15.1515 13.3334 17.9221 13.324 21.5338C13.3163 24.4647 15.3272 26.8038 18.2567 27.2717C20.4437 27.6211 22.9121 26.2531 23.9507 24.116C24.3708 23.2513 24.5782 22.379 24.5727 21.5054L26.8358 19.1346C27.4401 21.1624 27.2555 23.2775 26.2825 25.3169L25.7444 26.4448L24.0032 24.6553L25.7791 26.4862L24.8398 27.4475L23.9006 28.4086L22.1133 26.5716L23.8431 28.3553L23.3156 28.7171C22.4988 29.2772 21.1127 29.7765 19.9468 29.9305C14.6432 30.6306 10.0817 25.9424 10.7609 20.4894C11.0165 18.4385 11.7073 17.0129 13.1888 15.4796C13.9765 14.6644 14.3307 14.3998 15.2405 13.9474Z" fill="#00A6CA"/>
</svg>
