<svg width="50" height="50" viewBox="0 0 50 50" fill="none" xmlns="http://www.w3.org/2000/svg">
<circle cx="25" cy="25" r="25" fill="#F9F9F9"/>
<path d="M21.105 33.3333H28.8933H21.105ZM25 10V11.6667V10ZM35.6067 14.3933L34.4283 15.5717L35.6067 14.3933ZM40 25H38.3333H40ZM11.6667 25H10H11.6667ZM15.5717 15.5717L14.3933 14.3933L15.5717 15.5717ZM19.1067 30.8933C17.9414 29.7278 17.148 28.2429 16.8266 26.6265C16.5053 25.01 16.6704 23.3346 17.3012 21.812C17.932 20.2894 19.0001 18.9881 20.3705 18.0725C21.7408 17.1569 23.3519 16.6682 25 16.6682C26.6481 16.6682 28.2592 17.1569 29.6295 18.0725C30.9999 18.9881 32.068 20.2894 32.6988 21.812C33.3296 23.3346 33.4947 25.01 33.1734 26.6265C32.852 28.2429 32.0586 29.7278 30.8933 30.8933L29.98 31.805C29.4578 32.3272 29.0437 32.9472 28.7611 33.6296C28.4786 34.3119 28.3332 35.0432 28.3333 35.7817V36.6667C28.3333 37.5507 27.9821 38.3986 27.357 39.0237C26.7319 39.6488 25.8841 40 25 40C24.1159 40 23.2681 39.6488 22.643 39.0237C22.0179 38.3986 21.6667 37.5507 21.6667 36.6667V35.7817C21.6667 34.29 21.0733 32.8583 20.02 31.805L19.1067 30.8933Z" stroke="#006685" stroke-width="2" stroke-linecap="round" stroke-linejoin="round"/>
</svg>
