<svg width="38" height="38" viewBox="0 0 38 38" fill="none" xmlns="http://www.w3.org/2000/svg">
<path d="M32.4089 16.028L32.7 16.177V15.85V6.625C32.7 5.08011 32.0863 3.5985 30.9939 2.5061C29.9015 1.4137 28.4199 0.8 26.875 0.8H6.625C5.08011 0.8 3.5985 1.4137 2.5061 2.5061C1.4137 3.5985 0.8 5.08011 0.8 6.625V26.875C0.8 28.4199 1.4137 29.9015 2.5061 30.9939C3.5985 32.0863 5.08011 32.7 6.625 32.7H15.85H16.1777L16.0279 32.4085C15.6673 31.7074 15.3774 30.9683 15.1582 30.1954L15.1169 30.05H14.9657H6.625C5.78294 30.05 4.97536 29.7155 4.37994 29.1201C3.78451 28.5246 3.45 27.7171 3.45 26.875V10.2H30.05V14.9657V15.117L30.1955 15.1582C30.9601 15.3747 31.7015 15.6661 32.4089 16.028ZM6.625 3.45H26.875C27.7171 3.45 28.5246 3.78451 29.1201 4.37994C29.7155 4.97536 30.05 5.78294 30.05 6.625V7.55H3.45V6.625C3.45 5.78294 3.78451 4.97536 4.37994 4.37994C4.97536 3.78451 5.78294 3.45 6.625 3.45ZM25.7392 21.2392C25.438 21.5404 25.2687 21.949 25.2687 22.375C25.2687 22.801 25.438 23.2096 25.7392 23.5108C26.0404 23.812 26.449 23.9812 26.875 23.9812C27.301 23.9812 27.7096 23.812 28.0108 23.5108C28.312 23.2096 28.4812 22.801 28.4812 22.375C28.4812 21.949 28.312 21.5404 28.0108 21.2392C27.7096 20.938 27.301 20.7687 26.875 20.7687C26.449 20.7687 26.0404 20.938 25.7392 21.2392ZM27.8119 32.3119C28.0604 32.0634 28.2 31.7264 28.2 31.375V26.875C28.2 26.5236 28.0604 26.1866 27.8119 25.9381C27.5634 25.6896 27.2264 25.55 26.875 25.55C26.5236 25.55 26.1866 25.6896 25.9381 25.9381C25.6896 26.1866 25.55 26.5236 25.55 26.875V31.375C25.55 31.7264 25.6896 32.0634 25.9381 32.3119C26.1866 32.5604 26.5236 32.7 26.875 32.7C27.2264 32.7 27.5634 32.5604 27.8119 32.3119ZM19.5741 19.5741C17.6378 21.5104 16.55 24.1366 16.55 26.875C16.55 29.6134 17.6378 32.2396 19.5741 34.1759C21.5104 36.1122 24.1366 37.2 26.875 37.2C29.6134 37.2 32.2396 36.1122 34.1759 34.1759C36.1122 32.2396 37.2 29.6134 37.2 26.875C37.2 24.1366 36.1122 21.5104 34.1759 19.5741C32.2396 17.6378 29.6134 16.55 26.875 16.55C24.1366 16.55 21.5104 17.6378 19.5741 19.5741ZM19.7842 29.8121C19.3985 28.8809 19.2 27.8829 19.2 26.875C19.2 24.8395 20.0086 22.8873 21.448 21.448C22.8873 20.0086 24.8395 19.2 26.875 19.2C28.9105 19.2 30.8627 20.0086 32.302 21.448C33.7414 22.8873 34.55 24.8395 34.55 26.875C34.55 27.8829 34.3515 28.8809 33.9658 29.8121C33.5801 30.7433 33.0147 31.5894 32.302 32.302C31.5894 33.0147 30.7433 33.5801 29.8121 33.9658C28.8809 34.3515 27.8829 34.55 26.875 34.55C25.8671 34.55 24.8691 34.3515 23.9379 33.9658C23.0067 33.5801 22.1606 33.0147 21.448 32.302C20.7353 31.5894 20.1699 30.7433 19.7842 29.8121Z" fill="#00A6CA" stroke="#00A6CA" stroke-width="0.4"/>
</svg>
