<svg width="42" height="30" viewBox="0 0 42 30" fill="none" xmlns="http://www.w3.org/2000/svg">
<path d="M42 22C42 26.4183 38.4183 30 34 30C29.5817 30 26 26.4183 26 22C26 17.5817 29.5817 14 34 14C38.4183 14 42 17.5817 42 22ZM28.1068 22C28.1068 25.2547 30.7453 27.8932 34 27.8932C37.2547 27.8932 39.8932 25.2547 39.8932 22C39.8932 18.7453 37.2547 16.1068 34 16.1068C30.7453 16.1068 28.1068 18.7453 28.1068 22Z" fill="#00A6CA"/>
<circle cx="34" cy="19" r="1" fill="#00A6CA"/>
<rect x="33" y="21" width="2" height="5" rx="1" fill="#00A6CA"/>
<path fill-rule="evenodd" clip-rule="evenodd" d="M34 9V12C35.0452 12 36.053 12.1604 37 12.4578V5C37 2.23858 34.7614 0 32 0H5C2.23858 0 0 2.23858 0 5V22C0 24.7614 2.23858 27 5 27H25.3378C24.8069 26.0822 24.4177 25.0723 24.2 24H5C3.89543 24 3 23.1046 3 22V9H34ZM32 3H5C3.89543 3 3 3.89543 3 5V6H34V5C34 3.89543 33.1046 3 32 3Z" fill="#00A6CA"/>
</svg>
