<svg width="30" height="30" viewBox="0 0 30 30" fill="none" xmlns="http://www.w3.org/2000/svg">
<path fill-rule="evenodd" clip-rule="evenodd" d="M8.91881 0.122893C8.60259 0.180823 7.91451 0.418333 7.38958 0.650895C5.64234 1.42474 4.26268 2.9735 3.6838 4.81059C3.42852 5.62075 3.41467 7.42465 3.65714 8.27428C3.89755 9.11643 4.54008 10.209 5.21536 10.9239L5.77535 11.5169L4.98582 11.9833C3.18682 13.046 1.91119 14.3693 1.00807 16.1096C0.186326 17.6932 -0.0443713 18.9847 0.00673678 21.7149C0.0450355 23.7589 0.0732412 23.9906 0.340426 24.4571C0.798199 25.2563 1.36285 25.7802 2.15987 26.1453L2.89505 26.482L6.55827 26.522L10.2215 26.5621L9.96776 26.0982C9.82828 25.8431 9.58606 25.2412 9.42963 24.7607L9.14511 23.8872H6.30532H3.46552L3.148 23.5909C2.83579 23.2998 2.83036 23.2599 2.83191 21.2677C2.83359 18.9828 2.94771 18.4118 3.67798 17.0328C4.26345 15.9272 5.66006 14.5784 6.80074 14.0169C7.78331 13.5333 9.3533 13.1461 10.3317 13.1461C13.592 13.1461 16.4489 11.1349 17.2748 8.25835C17.5075 7.44782 17.4966 5.7564 17.253 4.8842C16.7968 3.2506 15.3443 1.53492 13.7516 0.748651C12.3767 0.069912 10.5219 -0.170253 8.91881 0.122893ZM12.1765 2.97676C13.0458 3.33339 13.9817 4.20414 14.3654 5.01286C15.5622 7.53653 13.4582 10.491 10.4642 10.491C9.30374 10.491 8.34925 10.1065 7.46683 9.28346C6.84202 8.70067 6.68882 8.46617 6.44635 7.72154C5.96969 6.25749 6.26844 5.03108 7.37457 3.91184C8.67142 2.59949 10.4248 2.25807 12.1765 2.97676ZM18.9391 13.2229C18.441 13.3207 17.4872 13.6466 16.8199 13.9474C15.8158 14.3998 15.4249 14.6644 14.5556 15.4796C12.9205 17.0129 12.1582 18.4385 11.8761 20.4894C11.1264 25.9424 16.1606 30.6306 22.0139 29.9305C23.3006 29.7765 24.8304 29.2772 25.7318 28.7171L26.3139 28.3553L24.4049 26.5716L26.3774 28.4086L27.414 27.4475L28.4506 26.4862L26.4907 24.6553L28.4123 26.4448L29.0062 25.3169C30.3195 22.8226 30.3314 20.2151 29.0405 17.7926C28.0493 15.9325 26.8824 14.8441 24.8909 13.9215C23.0376 13.063 20.9826 12.8219 18.9391 13.2229ZM21.9944 15.8011C23.8365 16.1197 25.5943 17.3727 26.4411 18.9709C27.3481 20.6829 27.3453 22.4144 26.4327 24.116C25.2864 26.2531 22.5623 27.6211 20.1486 27.2717C16.9156 26.8038 14.6962 24.4647 14.7048 21.5338C14.7151 17.9221 18.2382 15.1515 21.9944 15.8011Z" fill="#F16E00"/>
<rect x="20.1021" y="17.647" width="1.41895" height="7.05882" fill="#F16E00"/>
<rect x="17.0273" y="21.8384" width="1.32353" height="7.56775" transform="rotate(-90 17.0273 21.8384)" fill="#F16E00"/>
</svg>
