<svg width="52" height="38" viewBox="0 0 52 38" fill="none" xmlns="http://www.w3.org/2000/svg">
<path d="M44.9848 28.7454H7.81861L0 35.0866H51.998L44.9848 28.7454Z" fill="#D0D7DD"/>
<path d="M43.9074 29.5914L8.23877 29.5919L5.91797 31.7052H46.0791L43.9074 29.5914Z" fill="#2A3D4F"/>
<path d="M0 37.2016V35.0878H51.998V37.2016H0Z" fill="#2A3D4F"/>
<path d="M7.60986 2.95831V28.3232H44.8117V2.95831H7.60986Z" fill="#D0D7DD"/>
<circle cx="26.2103" cy="12.6825" r="12.6825" fill="#FF0000" fill-opacity="0.8"/>
<path d="M30.9046 7.19653L26.3775 11.7236L21.8504 7.19653L20.7085 8.33843L25.2356 12.8655L20.7085 17.3926L21.8504 18.5345L26.3775 14.0074L30.9046 18.5345L32.0465 17.3926L27.5194 12.8655L32.0465 8.33843L30.9046 7.19653Z" fill="white"/>
</svg>
